<svg viewBox="0 0 64 64" xmlns="http://www.w3.org/2000/svg" width="64" height="64"><rect fill="currentColor" stroke="none" x="29" y="3" width="6" height="10" rx="2" transform="rotate(0 32 32)"></rect><rect fill="currentColor" stroke="none" x="29" y="3" width="6" height="10" rx="2" transform="rotate(45 32 32)"></rect><rect fill="currentColor" stroke="none" x="29" y="3" width="6" height="10" rx="2" transform="rotate(90 32 32)"></rect><rect fill="currentColor" stroke="none" x="29" y="3" width="6" height="10" rx="2" transform="rotate(135 32 32)"></rect><rect fill="currentColor" stroke="none" x="29" y="3" width="6" height="10" rx="2" transform="rotate(180 32 32)"></rect><rect fill="currentColor" stroke="none" x="29" y="3" width="6" height="10" rx="2" transform="rotate(225 32 32)"></rect><rect fill="currentColor" stroke="none" x="29" y="3" width="6" height="10" rx="2" transform="rotate(270 32 32)"></rect><rect fill="currentColor" stroke="none" x="29" y="3" width="6" height="10" rx="2" transform="rotate(315 32 32)"></rect><circle fill="none" stroke="currentColor" stroke-linecap="round" stroke-linejoin="round" stroke-width="3" cx="32" cy="32" r="17"></circle><circle fill="none" stroke="currentColor" stroke-linecap="round" stroke-linejoin="round" stroke-width="3" cx="32" cy="32" r="6"></circle></svg>
